STARTFONT 2.3
FONT -FontForge-Indie Flower-Book-R-Normal--12-120-72-72-P-55-ISO10646-1
SIZE 12 72 72  4
FONTBOUNDINGBOX 15 18 -2 -6
COMMENT "Generated by fontforge, http://fontforge.sourceforge.net"
COMMENT "Copyright (c) 2010, Kimberly Geswein (kimberlygeswein.com)"
STARTPROPERTIES 40
FOUNDRY "FontForge"
FAMILY_NAME "Indie Flower"
WEIGHT_NAME "Book"
SLANT "R"
SETWIDTH_NAME "Normal"
ADD_STYLE_NAME ""
PIXEL_SIZE 12
POINT_SIZE 120
RESOLUTION_X 72
RESOLUTION_Y 72
SPACING "P"
AVERAGE_WIDTH 55
CHARSET_REGISTRY "ISO10646"
CHARSET_ENCODING "1"
FONTNAME_REGISTRY ""
CHARSET_COLLECTIONS "ISO8859-2 ISO8859-9 ISO8859-4 ISO10646-1"
BITS_PER_PIXEL 4
FONT_NAME "IndieFlower"
FACE_NAME "Indie Flower"
COPYRIGHT "Copyright (c) 2010, Kimberly Geswein (kimberlygeswein.com)"
FONT_VERSION "1.001 2010"
FONT_ASCENT 10
FONT_DESCENT 2
UNDERLINE_POSITION -1
UNDERLINE_THICKNESS 1
X_HEIGHT 4
CAP_HEIGHT 6
RAW_ASCENT 799
RAW_DESCENT 200
NORM_SPACE 5
RELATIVE_WEIGHT 40
RELATIVE_SETWIDTH 50
SUPERSCRIPT_X 0
SUPERSCRIPT_Y 5
SUPERSCRIPT_SIZE 7
SUBSCRIPT_X 0
SUBSCRIPT_Y 1
SUBSCRIPT_SIZE 7
AVG_LOWERCASE_WIDTH 53
AVG_UPPERCASE_WIDTH 64
ENDPROPERTIES
CHARS 356
STARTCHAR space
ENCODING 32
SWIDTH 375 0
DWIDTH 5 0
BBX 1 1 0 0
BITMAP
00
ENDCHAR
STARTCHAR exclam
ENCODING 33
SWIDTH 149 0
DWIDTH 2 0
BBX 2 10 0 0
BITMAP
70
81
81
81
81
82
62
00
11
B7
ENDCHAR
STARTCHAR quotedbl
ENCODING 34
SWIDTH 234 0
DWIDTH 3 0
BBX 3 5 0 5
BITMAP
1210
9450
A570
5670
0010
ENDCHAR
STARTCHAR numbersign
ENCODING 35
SWIDTH 768 0
DWIDTH 9 0
BBX 9 6 0 0
BITMAP
0005160000
00065A6610
39ACBB6320
5227BCDB90
0776A65000
0000345000
ENDCHAR
STARTCHAR dollar
ENCODING 36
SWIDTH 581 0
DWIDTH 7 0
BBX 7 11 0 0
BITMAP
00063300
00099400
008EA800
02896100
006C9000
000CE600
00099650
812860A0
299A6190
008FBA20
00495000
ENDCHAR
STARTCHAR percent
ENCODING 37
SWIDTH 636 0
DWIDTH 8 0
BBX 8 8 0 0
BITMAP
00000010
17300720
A4A14400
A2927000
27391560
00575784
00B19082
03506A60
ENDCHAR
STARTCHAR ampersand
ENCODING 38
SWIDTH 457 0
DWIDTH 5 0
BBX 6 9 0 0
BITMAP
003000
03F100
04F200
04C000
0765B2
0A8820
646C00
A08A00
9A5240
ENDCHAR
STARTCHAR quotesingle
ENCODING 39
SWIDTH 102 0
DWIDTH 1 0
BBX 1 4 0 5
BITMAP
50
A0
90
10
ENDCHAR
STARTCHAR parenleft
ENCODING 40
SWIDTH 421 0
DWIDTH 5 0
BBX 5 8 0 -1
BITMAP
003A80
038000
190000
740000
A00000
910000
4B4100
037200
ENDCHAR
STARTCHAR parenright
ENCODING 41
SWIDTH 290 0
DWIDTH 3 0
BBX 4 8 0 -1
BITMAP
3B30
02B0
0092
0073
00A0
0570
4C00
7200
ENDCHAR
STARTCHAR asterisk
ENCODING 42
SWIDTH 412 0
DWIDTH 5 0
BBX 5 6 0 2
BITMAP
000020
388A30
3BFD10
3DAC00
235B20
001000
ENDCHAR
STARTCHAR plus
ENCODING 43
SWIDTH 459 0
DWIDTH 6 0
BBX 6 5 0 0
BITMAP
008000
00B100
8AECB2
009200
007200
ENDCHAR
STARTCHAR comma
ENCODING 44
SWIDTH 130 0
DWIDTH 2 0
BBX 2 5 0 -3
BITMAP
70
92
A1
A0
10
ENDCHAR
STARTCHAR hyphen
ENCODING 45
SWIDTH 375 0
DWIDTH 5 0
BBX 4 2 0 2
BITMAP
6BAA
1000
ENDCHAR
STARTCHAR period
ENCODING 46
SWIDTH 204 0
DWIDTH 2 0
BBX 3 3 0 0
BITMAP
0200
5E10
4C00
ENDCHAR
STARTCHAR slash
ENCODING 47
SWIDTH 309 0
DWIDTH 4 0
BBX 4 9 0 0
BITMAP
0016
0055
0091
01A0
0560
0A10
1A00
8400
9000
ENDCHAR
STARTCHAR zero
ENCODING 48
SWIDTH 430 0
DWIDTH 5 0
BBX 5 5 0 0
BITMAP
07CA00
630480
8000A0
720290
19AA20
ENDCHAR
STARTCHAR one
ENCODING 49
SWIDTH 318 0
DWIDTH 4 0
BBX 4 7 0 0
BITMAP
0018
0067
04E5
3AB3
61B1
00B0
0080
ENDCHAR
STARTCHAR two
ENCODING 50
SWIDTH 497 0
DWIDTH 6 0
BBX 6 7 0 0
BITMAP
001720
0073A0
001082
000082
0000B0
9A5840
5BBAB6
ENDCHAR
STARTCHAR three
ENCODING 51
SWIDTH 430 0
DWIDTH 5 0
BBX 5 7 0 0
BITMAP
155100
554900
015A00
1BE600
001770
8400B0
08BB60
ENDCHAR
STARTCHAR four
ENCODING 52
SWIDTH 412 0
DWIDTH 5 0
BBX 5 8 0 0
BITMAP
010000
650000
910030
9002A0
911C70
3DDA60
000480
000280
ENDCHAR
STARTCHAR five
ENCODING 53
SWIDTH 571 0
DWIDTH 7 0
BBX 7 8 0 0
BITMAP
007BAA40
00900000
04900000
04AB6000
00005600
20000A00
81003A00
3BCCB200
ENDCHAR
STARTCHAR six
ENCODING 54
SWIDTH 440 0
DWIDTH 5 0
BBX 5 8 0 0
BITMAP
000120
007990
084000
371000
9B8A40
9000A0
9301B0
2CCB30
ENDCHAR
STARTCHAR seven
ENCODING 55
SWIDTH 412 0
DWIDTH 5 0
BBX 5 7 0 0
BITMAP
454300
244900
001800
079B40
039640
009100
00A000
ENDCHAR
STARTCHAR eight
ENCODING 56
SWIDTH 375 0
DWIDTH 5 0
BBX 5 7 0 0
BITMAP
2AB200
A25600
769000
0B9000
652800
560720
078A00
ENDCHAR
STARTCHAR nine
ENCODING 57
SWIDTH 300 0
DWIDTH 4 0
BBX 4 7 0 0
BITMAP
5992
A067
A1A5
17D3
0072
0082
0072
ENDCHAR
STARTCHAR colon
ENCODING 58
SWIDTH 84 0
DWIDTH 1 0
BBX 1 3 0 1
BITMAP
70
00
30
ENDCHAR
STARTCHAR semicolon
ENCODING 59
SWIDTH 128 0
DWIDTH 2 0
BBX 3 8 -1 -3
BITMAP
0700
0300
0000
0310
0630
0B10
2A00
0100
ENDCHAR
STARTCHAR less
ENCODING 60
SWIDTH 487 0
DWIDTH 6 0
BBX 6 5 0 0
BITMAP
000183
004A20
086000
AA4100
2589B0
ENDCHAR
STARTCHAR equal
ENCODING 61
SWIDTH 524 0
DWIDTH 6 0
BBX 6 4 0 1
BITMAP
599997
122103
234441
466663
ENDCHAR
STARTCHAR greater
ENCODING 62
SWIDTH 403 0
DWIDTH 5 0
BBX 5 6 0 0
BITMAP
520000
2A9410
0028B0
002B30
06A100
760000
ENDCHAR
STARTCHAR question
ENCODING 63
SWIDTH 272 0
DWIDTH 3 0
BBX 3 11 0 0
BITMAP
2400
7690
00A0
00B0
0580
0C10
1C50
0240
0000
0000
0080
ENDCHAR
STARTCHAR at
ENCODING 64
SWIDTH 815 0
DWIDTH 10 0
BBX 10 11 0 0
BITMAP
0017983000
03A2028800
19000003A0
6100584065
7008417627
703600B136
816301E092
36383A8B70
0923720000
00A4000010
0007B9AB70
ENDCHAR
STARTCHAR A
ENCODING 65
SWIDTH 562 0
DWIDTH 7 0
BBX 7 10 0 0
BITMAP
00010000
05898000
08006500
34000900
52000900
62000730
9A778B50
54000460
46000560
17000740
ENDCHAR
STARTCHAR B
ENCODING 66
SWIDTH 741 0
DWIDTH 9 0
BBX 9 9 0 0
BITMAP
0035200000
68E9891000
0092064000
00556A0000
00299D6000
000B006900
000B000560
001C000390
0019BAAB20
ENDCHAR
STARTCHAR C
ENCODING 67
SWIDTH 515 0
DWIDTH 6 0
BBX 6 8 0 0
BITMAP
003970
049270
180000
710000
800000
900000
740023
0ACB94
ENDCHAR
STARTCHAR D
ENCODING 68
SWIDTH 741 0
DWIDTH 9 0
BBX 9 9 0 -1
BITMAP
2687300000
54299A5000
0005507700
0002700930
0001900380
0000B00470
0000802C20
000BAAC300
0000110000
ENDCHAR
STARTCHAR E
ENCODING 69
SWIDTH 524 0
DWIDTH 6 0
BBX 6 8 0 0
BITMAP
365551
954433
910000
A66891
A42100
900000
900000
5BCDD6
ENDCHAR
STARTCHAR F
ENCODING 70
SWIDTH 514 0
DWIDTH 6 0
BBX 9 8 -1 0
BITMAP
0012320000
28DC99BA10
0055000110
0045000000
03BEDB3000
000A000000
000B000000
0009000000
ENDCHAR
STARTCHAR G
ENCODING 71
SWIDTH 571 0
DWIDTH 7 0
BBX 7 8 0 -1
BITMAP
00002300
00497720
07500000
46075610
81033750
73000950
19A97A50
00000370
ENDCHAR
STARTCHAR H
ENCODING 72
SWIDTH 524 0
DWIDTH 6 0
BBX 6 8 0 0
BITMAP
500018
800018
720018
6405B8
5BA619
7A000A
19000A
060009
ENDCHAR
STARTCHAR I
ENCODING 73
SWIDTH 167 0
DWIDTH 2 0
BBX 2 7 0 0
BITMAP
40
90
63
36
29
0A
09
ENDCHAR
STARTCHAR J
ENCODING 74
SWIDTH 439 0
DWIDTH 5 0
BBX 6 9 0 0
BITMAP
000110
000270
0000A0
0000A0
1000A0
900091
460091
0550A0
005A80
ENDCHAR
STARTCHAR K
ENCODING 75
SWIDTH 468 0
DWIDTH 6 0
BBX 6 7 0 0
BITMAP
802A00
91B100
8A2000
780000
7B6000
646910
3502A2
ENDCHAR
STARTCHAR L
ENCODING 76
SWIDTH 346 0
DWIDTH 4 0
BBX 4 7 0 0
BITMAP
1100
7300
9200
A000
A000
A000
4CC9
ENDCHAR
STARTCHAR M
ENCODING 77
SWIDTH 534 0
DWIDTH 6 0
BBX 7 8 0 0
BITMAP
30000200
96004900
3E32C800
479A7800
46001A00
56000B00
56000C00
34000B10
ENDCHAR
STARTCHAR N
ENCODING 78
SWIDTH 609 0
DWIDTH 7 0
BBX 7 7 0 0
BITMAP
30000000
74000A10
78000770
7E0001B0
947000A0
A18601A0
9107BA20
ENDCHAR
STARTCHAR O
ENCODING 79
SWIDTH 609 0
DWIDTH 7 0
BBX 7 6 0 0
BITMAP
07A82000
74029800
80000660
910000B0
4A1002B0
05B99910
ENDCHAR
STARTCHAR P
ENCODING 80
SWIDTH 627 0
DWIDTH 8 0
BBX 8 8 0 0
BITMAP
01310000
9879B810
300403B1
00170065
001A14B1
000EB710
000A0000
00070000
ENDCHAR
STARTCHAR Q
ENCODING 81
SWIDTH 642 0
DWIDTH 8 0
BBX 8 9 0 -2
BITMAP
01551000
1956D400
72009940
A00010A1
91033045
2A10C3A2
03BCDE40
00000193
00000013
ENDCHAR
STARTCHAR R
ENCODING 82
SWIDTH 579 0
DWIDTH 7 0
BBX 8 9 -1 -1
BITMAP
02677400
1B4348A0
02600084
00856AA1
006C5100
003D4000
00088500
00050781
00000034
ENDCHAR
STARTCHAR S
ENCODING 83
SWIDTH 627 0
DWIDTH 8 0
BBX 8 9 0 -1
BITMAP
00022000
02966B30
05400010
01960000
0004A600
70000690
65000093
05999A80
00001000
ENDCHAR
STARTCHAR T
ENCODING 84
SWIDTH 581 0
DWIDTH 7 0
BBX 8 8 0 0
BITMAP
22210000
579BCAB8
00046001
00037000
00019000
0000B000
0000B000
00009400
ENDCHAR
STARTCHAR U
ENCODING 85
SWIDTH 571 0
DWIDTH 7 0
BBX 7 7 0 0
BITMAP
23000200
81002800
80001A00
80000A00
63000B10
1A007D70
06DB4160
ENDCHAR
STARTCHAR V
ENCODING 86
SWIDTH 421 0
DWIDTH 5 0
BBX 5 7 0 0
BITMAP
100010
A200A0
4903A0
0C1670
067930
00CA00
007600
ENDCHAR
STARTCHAR W
ENCODING 87
SWIDTH 703 0
DWIDTH 8 0
BBX 9 6 0 0
BITMAP
7000004400
A000002B00
B005000B10
A109300830
653CA00A10
0AA13CB400
ENDCHAR
STARTCHAR X
ENCODING 88
SWIDTH 534 0
DWIDTH 6 0
BBX 7 8 0 -1
BITMAP
02000000
0A002910
04739100
00B90000
04B90000
1A075000
83009100
50000000
ENDCHAR
STARTCHAR Y
ENCODING 89
SWIDTH 403 0
DWIDTH 5 0
BBX 5 9 0 -1
BITMAP
500020
840180
1B4750
018E10
002900
006400
009100
009000
001000
ENDCHAR
STARTCHAR Z
ENCODING 90
SWIDTH 571 0
DWIDTH 7 0
BBX 7 8 0 0
BITMAP
26620000
64386000
00009000
0001A000
05AEC910
00190000
00A10220
00CBCA40
ENDCHAR
STARTCHAR bracketleft
ENCODING 91
SWIDTH 477 0
DWIDTH 6 0
BBX 7 10 0 -1
BITMAP
00035300
39A73000
A3000000
65000000
29000000
09000000
09000000
08000000
07100000
06B9AA40
ENDCHAR
STARTCHAR backslash
ENCODING 92
SWIDTH 430 0
DWIDTH 5 0
BBX 5 7 0 0
BITMAP
300000
850000
0B3000
02D200
004C00
000780
0000B0
ENDCHAR
STARTCHAR bracketright
ENCODING 93
SWIDTH 430 0
DWIDTH 5 0
BBX 5 12 0 -2
BITMAP
6BB800
000940
000380
000180
000080
000080
000080
000090
0000A0
0000B0
2BCCD0
022210
ENDCHAR
STARTCHAR asciicircum
ENCODING 94
SWIDTH 375 0
DWIDTH 5 0
BBX 4 3 0 6
BITMAP
0180
08C7
3517
ENDCHAR
STARTCHAR underscore
ENCODING 95
SWIDTH 656 0
DWIDTH 8 0
BBX 8 2 0 0
BITMAP
22000000
269BBCD7
ENDCHAR
STARTCHAR grave
ENCODING 96
SWIDTH 172 0
DWIDTH 2 0
BBX 2 2 0 5
BITMAP
52
17
ENDCHAR
STARTCHAR a
ENCODING 97
SWIDTH 505 0
DWIDTH 6 0
BBX 6 6 0 0
BITMAP
02B910
0002A0
0798C4
850199
910006
1ABCB5
ENDCHAR
STARTCHAR b
ENCODING 98
SWIDTH 497 0
DWIDTH 6 0
BBX 6 8 0 0
BITMAP
500000
B00000
900000
730000
5EAB60
370067
1A002A
07CAB3
ENDCHAR
STARTCHAR c
ENCODING 99
SWIDTH 449 0
DWIDTH 5 0
BBX 5 5 0 0
BITMAP
088A10
730220
A00000
930000
1AAA80
ENDCHAR
STARTCHAR d
ENCODING 100
SWIDTH 524 0
DWIDTH 6 0
BBX 6 9 0 0
BITMAP
000190
0000E1
0000B5
000087
1CD979
9603CA
B0008C
9305AC
1CC805
ENDCHAR
STARTCHAR e
ENCODING 101
SWIDTH 515 0
DWIDTH 6 0
BBX 6 7 0 0
BITMAP
002100
197A20
730450
A25B10
A55100
470000
05BBA4
ENDCHAR
STARTCHAR f
ENCODING 102
SWIDTH 376 0
DWIDTH 5 0
BBX 6 9 0 0
BITMAP
003610
0494B2
080012
090000
0B0000
9DCA10
057000
00C100
005800
ENDCHAR
STARTCHAR g
ENCODING 103
SWIDTH 366 0
DWIDTH 4 0
BBX 7 11 -2 -6
BITMAP
0006B600
00470A00
00900B10
00A23E30
002A9B40
00000740
00000550
20000460
82000640
1B720B10
006BC600
ENDCHAR
STARTCHAR h
ENCODING 104
SWIDTH 427 0
DWIDTH 5 0
BBX 6 9 -1 0
BITMAP
120000
190000
0B0000
094610
07B7B1
054036
046019
03801A
018028
ENDCHAR
STARTCHAR i
ENCODING 105
SWIDTH 174 0
DWIDTH 2 0
BBX 2 8 0 0
BITMAP
10
60
11
45
46
39
1C
0A
ENDCHAR
STARTCHAR j
ENCODING 106
SWIDTH 200 0
DWIDTH 2 0
BBX 5 13 -2 -6
BITMAP
007100
000000
000500
000B00
000B10
000930
000660
000480
320190
2900A0
0A30A0
01AA80
000410
ENDCHAR
STARTCHAR k
ENCODING 107
SWIDTH 403 0
DWIDTH 5 0
BBX 5 8 0 0
BITMAP
100000
800000
900400
917400
6A4000
5C0000
5E6000
546C70
ENDCHAR
STARTCHAR l
ENCODING 108
SWIDTH 120 0
DWIDTH 1 0
BBX 2 7 0 0
BITMAP
90
A1
A1
A2
A2
A2
80
ENDCHAR
STARTCHAR m
ENCODING 109
SWIDTH 750 0
DWIDTH 9 0
BBX 9 5 0 0
BITMAP
59A41AB900
A71AC30740
9203A00290
8300B001A0
5200200270
ENDCHAR
STARTCHAR n
ENCODING 110
SWIDTH 459 0
DWIDTH 6 0
BBX 6 5 0 0
BITMAP
37AB20
A602A0
9300A1
750074
270073
ENDCHAR
STARTCHAR o
ENCODING 111
SWIDTH 487 0
DWIDTH 6 0
BBX 6 5 0 0
BITMAP
07AC80
740094
900037
8201B4
1AAC60
ENDCHAR
STARTCHAR p
ENCODING 112
SWIDTH 520 0
DWIDTH 6 0
BBX 6 10 0 -5
BITMAP
001200
1AA8B4
95000B
B7613C
A77A93
790000
3B0000
0D0000
091000
010000
ENDCHAR
STARTCHAR q
ENCODING 113
SWIDTH 412 0
DWIDTH 5 0
BBX 5 10 0 -4
BITMAP
069A20
560470
900660
900850
751A30
08BD20
000730
000640
000650
000350
ENDCHAR
STARTCHAR r
ENCODING 114
SWIDTH 346 0
DWIDTH 4 0
BBX 4 6 0 0
BITMAP
0263
B758
A000
8200
4700
0800
ENDCHAR
STARTCHAR s
ENCODING 115
SWIDTH 514 0
DWIDTH 6 0
BBX 6 6 0 0
BITMAP
046300
673910
482300
0368A4
51001C
2AAAB5
ENDCHAR
STARTCHAR t
ENCODING 116
SWIDTH 328 0
DWIDTH 4 0
BBX 4 7 0 0
BITMAP
0730
0750
7DC7
0750
0760
0660
0250
ENDCHAR
STARTCHAR u
ENCODING 117
SWIDTH 501 0
DWIDTH 6 0
BBX 6 7 0 -1
BITMAP
100000
A00050
9000B1
9100C2
4804E4
08B919
000004
ENDCHAR
STARTCHAR v
ENCODING 118
SWIDTH 389 0
DWIDTH 5 0
BBX 5 5 0 0
BITMAP
400000
830740
290B00
098700
01C100
ENDCHAR
STARTCHAR w
ENCODING 119
SWIDTH 656 0
DWIDTH 8 0
BBX 8 5 0 0
BITMAP
80000020
A0034072
A0057037
730AB067
09C75BB1
ENDCHAR
STARTCHAR x
ENCODING 120
SWIDTH 448 0
DWIDTH 5 0
BBX 6 6 0 -1
BITMAP
600062
691950
07E200
079A00
340780
000060
ENDCHAR
STARTCHAR y
ENCODING 121
SWIDTH 487 0
DWIDTH 6 0
BBX 6 12 0 -6
BITMAP
100010
800052
900055
730047
1A01C8
03A928
000008
000009
000018
420045
2C3091
029C50
ENDCHAR
STARTCHAR z
ENCODING 122
SWIDTH 459 0
DWIDTH 6 0
BBX 6 7 0 0
BITMAP
013000
887A00
000A00
135D30
38D310
0A3030
0BDC91
ENDCHAR
STARTCHAR braceleft
ENCODING 123
SWIDTH 393 0
DWIDTH 5 0
BBX 5 13 0 -2
BITMAP
028920
3A2120
A10000
800000
4A2000
04F700
396B00
102B00
03A100
1A0000
270000
0B8850
002100
ENDCHAR
STARTCHAR bar
ENCODING 124
SWIDTH 149 0
DWIDTH 2 0
BBX 2 8 0 0
BITMAP
50
80
62
44
36
37
37
27
ENDCHAR
STARTCHAR braceright
ENCODING 125
SWIDTH 440 0
DWIDTH 5 0
BBX 5 15 0 -3
BITMAP
244100
B75B10
000650
002B10
02A100
092000
07DB20
073000
01A200
000900
000360
000090
000090
910490
398710
ENDCHAR
STARTCHAR asciitilde
ENCODING 126
SWIDTH 402 0
DWIDTH 5 0
BBX 5 3 0 4
BITMAP
261230
828800
100000
ENDCHAR
STARTCHAR nonbreakingspace
ENCODING 160
SWIDTH 375 0
DWIDTH 5 0
BBX 1 1 0 0
BITMAP
00
ENDCHAR
STARTCHAR exclamdown
ENCODING 161
SWIDTH 149 0
DWIDTH 2 0
BBX 2 8 0 0
BITMAP
96
00
31
72
72
72
71
71
ENDCHAR
STARTCHAR cent
ENCODING 162
SWIDTH 449 0
DWIDTH 5 0
BBX 5 8 0 -1
BITMAP
002000
00A200
1AAB30
826510
A06400
946400
2BDB80
004200
ENDCHAR
STARTCHAR sterling
ENCODING 163
SWIDTH 758 0
DWIDTH 9 0
BBX 9 9 0 0
BITMAP
0000039810
0000191390
0000620020
0002C66100
039AD55100
0002500000
0007100000
698D750000
9FA5661000
ENDCHAR
STARTCHAR currency
ENCODING 164
SWIDTH 618 0
DWIDTH 7 0
BBX 7 7 0 0
BITMAP
30000010
3B7BDA70
09600730
09000170
08100840
09989A00
06000510
ENDCHAR
STARTCHAR yen
ENCODING 165
SWIDTH 389 0
DWIDTH 5 0
BBX 5 9 0 0
BITMAP
630050
190660
081C00
03C600
00B000
48D800
49D700
01B100
02A000
ENDCHAR
STARTCHAR brokenbar
ENCODING 166
SWIDTH 117 0
DWIDTH 1 0
BBX 1 7 0 0
BITMAP
70
A0
90
60
B0
A0
80
ENDCHAR
STARTCHAR section
ENCODING 167
SWIDTH 514 0
DWIDTH 6 0
BBX 6 8 0 0
BITMAP
1ABA60
470064
0B9751
68324B
58223C
0489C7
33001B
08AAB5
ENDCHAR
STARTCHAR dieresis
ENCODING 168
SWIDTH 397 0
DWIDTH 5 0
BBX 4 2 0 5
BITMAP
0303
1B3A
ENDCHAR
STARTCHAR copyright
ENCODING 169
SWIDTH 667 0
DWIDTH 8 0
BBX 8 7 0 0
BITMAP
01798300
09237A70
55667494
80900119
73B00009
2B69A968
03BA9A60
ENDCHAR
STARTCHAR ordfeminine
ENCODING 170
SWIDTH 266 0
DWIDTH 3 0
BBX 3 4 0 3
BITMAP
0200
0440
5590
5660
ENDCHAR
STARTCHAR guillemotleft
ENCODING 171
SWIDTH 755 0
DWIDTH 9 0
BBX 9 6 0 0
BITMAP
0000000720
000186A400
004A881000
0879700000
AA479BA700
2579B00200
ENDCHAR
STARTCHAR logicalnot
ENCODING 172
SWIDTH 369 0
DWIDTH 4 0
BBX 5 2 0 3
BITMAP
6A9B10
000710
ENDCHAR
STARTCHAR hyphen_
ENCODING 173
SWIDTH 375 0
DWIDTH 5 0
BBX 4 2 0 2
BITMAP
6BAA
1000
ENDCHAR
STARTCHAR registered
ENCODING 174
SWIDTH 708 0
DWIDTH 9 0
BBX 8 7 0 0
BITMAP
029AB600
0A5668A0
66752C66
813B7709
641C5009
1C454886
018A9830
ENDCHAR
STARTCHAR macron
ENCODING 175
SWIDTH 287 0
DWIDTH 3 0
BBX 4 2 0 5
BITMAP
2672
3542
ENDCHAR
STARTCHAR degree
ENCODING 176
SWIDTH 254 0
DWIDTH 3 0
BBX 3 4 0 3
BITMAP
0400
6450
4050
6830
ENDCHAR
STARTCHAR plusminus
ENCODING 177
SWIDTH 459 0
DWIDTH 6 0
BBX 6 6 0 0
BITMAP
006000
00B000
48ECA2
329510
018740
287661
ENDCHAR
STARTCHAR twosuperior
ENCODING 178
SWIDTH 296 0
DWIDTH 4 0
BBX 3 4 0 3
BITMAP
0550
0060
1060
AA80
ENDCHAR
STARTCHAR threesuperior
ENCODING 179
SWIDTH 204 0
DWIDTH 2 0
BBX 3 4 0 3
BITMAP
6600
5800
1530
6640
ENDCHAR
STARTCHAR acute
ENCODING 180
SWIDTH 180 0
DWIDTH 2 0
BBX 2 3 0 4
BITMAP
05
84
20
ENDCHAR
STARTCHAR mu
ENCODING 181
SWIDTH 501 0
DWIDTH 6 0
BBX 6 7 0 -1
BITMAP
500000
A000A0
B000B1
C300D2
BC3AB6
A3851A
700000
ENDCHAR
STARTCHAR paragraph
ENCODING 182
SWIDTH 413 0
DWIDTH 5 0
BBX 5 8 0 -1
BITMAP
002100
4EFF30
BFFA60
8CE780
006780
006780
005760
001110
ENDCHAR
STARTCHAR periodcentered
ENCODING 183
SWIDTH 212 0
DWIDTH 3 0
BBX 2 2 0 2
BITMAP
15
4B
ENDCHAR
STARTCHAR cedilla
ENCODING 184
SWIDTH 445 0
DWIDTH 5 0
BBX 3 5 2 -4
BITMAP
1000
8000
5850
5090
5840
ENDCHAR
STARTCHAR onesuperior
ENCODING 185
SWIDTH 197 0
DWIDTH 2 0
BBX 4 5 -1 3
BITMAP
0031
0091
07B0
1380
0060
ENDCHAR
STARTCHAR ordmasculine
ENCODING 186
SWIDTH 254 0
DWIDTH 3 0
BBX 3 4 0 3
BITMAP
0400
6450
4050
6830
ENDCHAR
STARTCHAR guillemotright
ENCODING 187
SWIDTH 659 0
DWIDTH 8 0
BBX 8 6 0 0
BITMAP
52092000
2A96AB82
0028B0B4
002B3960
06A4B300
76081000
ENDCHAR
STARTCHAR onequarter
ENCODING 188
SWIDTH 626 0
DWIDTH 8 0
BBX 7 9 0 0
BITMAP
00351000
04670000
3B470000
36270000
06443000
00844020
008521A0
02718990
05200080
ENDCHAR
STARTCHAR onehalf
ENCODING 189
SWIDTH 566 0
DWIDTH 7 0
BBX 7 10 0 -1
BITMAP
00400000
01743000
1B661000
87480000
06285600
06452610
00810610
00940700
028BBA30
05200000
ENDCHAR
STARTCHAR threequarters
ENCODING 190
SWIDTH 566 0
DWIDTH 7 0
BBX 7 10 0 -1
BITMAP
00001000
01043000
46161000
4A070000
12585000
57884030
00643560
00808850
01800160
03400000
ENDCHAR
STARTCHAR questiondown
ENCODING 191
SWIDTH 272 0
DWIDTH 3 0
BBX 4 9 0 0
BITMAP
5200
0000
0000
4A40
0760
2C00
8400
9100
2994
ENDCHAR
STARTCHAR Agrave
ENCODING 192
SWIDTH 562 0
DWIDTH 7 0
BBX 7 11 0 0
BITMAP
00340000
00091000
05898000
08006500
34000900
52000900
62000730
9A778B50
54000460
46000560
17000740
ENDCHAR
STARTCHAR Aacute
ENCODING 193
SWIDTH 562 0
DWIDTH 7 0
BBX 7 12 0 0
BITMAP
00130000
02A10000
01110000
05898000
08006500
34000900
52000900
62000730
9A778B50
54000460
46000560
17000740
ENDCHAR
STARTCHAR Acircumflex
ENCODING 194
SWIDTH 562 0
DWIDTH 7 0
BBX 7 12 0 0
BITMAP
00450000
01BD3000
05335000
05898000
08006500
34000900
52000900
62000730
9A778B50
54000460
46000560
17000740
ENDCHAR
STARTCHAR Atilde
ENCODING 195
SWIDTH 562 0
DWIDTH 7 0
BBX 7 11 0 0
BITMAP
04504100
083A6000
05898000
08006500
34000900
52000900
62000730
9A778B50
54000460
46000560
17000740
ENDCHAR
STARTCHAR Adieresis
ENCODING 196
SWIDTH 562 0
DWIDTH 7 0
BBX 7 12 0 0
BITMAP
00212000
03958000
00010000
05898000
08006500
34000900
52000900
62000730
9A778B50
54000460
46000560
17000740
ENDCHAR
STARTCHAR Aring
ENCODING 197
SWIDTH 562 0
DWIDTH 7 0
BBX 7 11 0 0
BITMAP
00780000
00880000
05898000
08006500
34000900
52000900
62000730
9A778B50
54000460
46000560
17000740
ENDCHAR
STARTCHAR AE
ENCODING 198
SWIDTH 960 0
DWIDTH 12 0
BBX 12 10 0 0
BITMAP
000100000000
058980000000
080065666640
34000AB44340
520009900000
620007B68960
9A778B921000
540004600000
460005600010
170007BBCDB1
ENDCHAR
STARTCHAR Ccedilla
ENCODING 199
SWIDTH 515 0
DWIDTH 6 0
BBX 6 12 0 -4
BITMAP
003970
049270
180000
710000
800000
900000
740023
0ACB94
045000
007830
023090
007820
ENDCHAR
STARTCHAR Egrave
ENCODING 200
SWIDTH 524 0
DWIDTH 6 0
BBX 6 10 0 0
BITMAP
005200
001700
365551
954433
910000
A66891
A42100
900000
900000
5BCDD6
ENDCHAR
STARTCHAR Eacute
ENCODING 201
SWIDTH 524 0
DWIDTH 6 0
BBX 6 10 0 0
BITMAP
000400
00A300
367551
954433
910000
A66891
A42100
900000
900000
5BCDD6
ENDCHAR
STARTCHAR Ecircumflex
ENCODING 202
SWIDTH 524 0
DWIDTH 6 0
BBX 6 11 0 0
BITMAP
001800
009C60
035170
365551
954433
910000
A66891
A42100
900000
900000
5BCDD6
ENDCHAR
STARTCHAR Edieresis
ENCODING 203
SWIDTH 524 0
DWIDTH 6 0
BBX 6 10 0 0
BITMAP
012120
048670
365551
954433
910000
A66891
A42100
900000
900000
5BCDD6
ENDCHAR
STARTCHAR Igrave
ENCODING 204
SWIDTH 167 0
DWIDTH 2 0
BBX 3 10 -1 0
BITMAP
1600
0630
0000
0400
0900
0630
0360
0290
00A0
0090
ENDCHAR
STARTCHAR Iacute
ENCODING 205
SWIDTH 167 0
DWIDTH 2 0
BBX 3 9 -1 0
BITMAP
0130
1A10
1500
0900
0630
0360
0290
00A0
0090
ENDCHAR
STARTCHAR Icircumflex
ENCODING 206
SWIDTH 167 0
DWIDTH 2 0
BBX 4 11 -1 0
BITMAP
0370
0AD4
4416
0000
0400
0900
0630
0360
0290
00A0
0090
ENDCHAR
STARTCHAR Idieresis
ENCODING 207
SWIDTH 167 0
DWIDTH 2 0
BBX 4 9 -2 0
BITMAP
0302
2A39
0040
0090
0063
0036
0029
000A
0009
ENDCHAR
STARTCHAR Eth
ENCODING 208
SWIDTH 741 0
DWIDTH 9 0
BBX 9 9 0 -1
BITMAP
2687300000
542A9A5000
0006507700
0006962930
0027B53380
0000A00470
0000802C20
000BAAC300
0000110000
ENDCHAR
STARTCHAR Ntilde
ENCODING 209
SWIDTH 609 0
DWIDTH 7 0
BBX 7 9 0 0
BITMAP
00630400
05469300
31000000
74000A10
78000770
7E0001B0
947000A0
A18601A0
9107BA20
ENDCHAR
STARTCHAR Ograve
ENCODING 210
SWIDTH 609 0
DWIDTH 7 0
BBX 7 9 0 0
BITMAP
00070000
00036000
00000000
07A82000
74029800
80000660
910000B0
4A1002B0
05B99910
ENDCHAR
STARTCHAR Oacute
ENCODING 211
SWIDTH 609 0
DWIDTH 7 0
BBX 7 9 0 0
BITMAP
00032000
00490000
00200000
07A82000
74029800
80000660
910000B0
4A1002B0
05B99910
ENDCHAR
STARTCHAR Ocircumflex
ENCODING 212
SWIDTH 609 0
DWIDTH 7 0
BBX 7 9 0 0
BITMAP
00720000
03CC1000
07152000
07A82000
74029800
80000660
910000B0
4A1002B0
05B99910
ENDCHAR
STARTCHAR Otilde
ENCODING 213
SWIDTH 609 0
DWIDTH 7 0
BBX 7 8 0 0
BITMAP
04503100
08396000
08A82000
74029800
80000660
910000B0
4A1002B0
05B99910
ENDCHAR
STARTCHAR Odieresis
ENCODING 214
SWIDTH 609 0
DWIDTH 7 0
BBX 7 9 0 0
BITMAP
00203000
00A3B100
00000000
07A82000
74029800
80000660
910000B0
4A1002B0
05B99910
ENDCHAR
STARTCHAR multiply
ENCODING 215
SWIDTH 448 0
DWIDTH 5 0
BBX 5 4 0 0
BITMAP
381910
07E200
097800
020100
ENDCHAR
STARTCHAR Oslash
ENCODING 216
SWIDTH 609 0
DWIDTH 7 0
BBX 7 10 0 -2
BITMAP
00006000
00009000
07A98000
7409A800
800B0660
914700B0
4AA202B0
06E99910
06400000
01000000
ENDCHAR
STARTCHAR Ugrave
ENCODING 217
SWIDTH 571 0
DWIDTH 7 0
BBX 7 9 0 0
BITMAP
00160000
00054000
23000200
81002800
80001A00
80000A00
63000B10
1A007D70
06DB4160
ENDCHAR
STARTCHAR Uacute
ENCODING 218
SWIDTH 571 0
DWIDTH 7 0
BBX 7 9 0 0
BITMAP
00040000
00660000
23200200
81002800
80001A00
80000A00
63000B10
1A007D70
06DB4160
ENDCHAR
STARTCHAR Ucircumflex
ENCODING 219
SWIDTH 571 0
DWIDTH 7 0
BBX 7 11 0 0
BITMAP
00091000
005CA000
01707000
00000000
23000200
81002800
80001A00
80000A00
63000B10
1A007D70
06DB4160
ENDCHAR
STARTCHAR Udieresis
ENCODING 220
SWIDTH 571 0
DWIDTH 7 0
BBX 7 9 0 0
BITMAP
00303000
01B2B000
23000200
81002800
80001A00
80000A00
63000B10
1A007D70
06DB4160
ENDCHAR
STARTCHAR Yacute
ENCODING 221
SWIDTH 403 0
DWIDTH 5 0
BBX 5 11 0 -1
BITMAP
000500
008400
502020
840180
1B4750
018E10
002900
006400
009100
009000
001000
ENDCHAR
STARTCHAR Thorn
ENCODING 222
SWIDTH 497 0
DWIDTH 6 0
BBX 6 10 0 -2
BITMAP
110000
660000
650000
540000
5EAB60
470067
3B002A
2CBAB3
270000
160000
ENDCHAR
STARTCHAR germandbls
ENCODING 223
SWIDTH 590 0
DWIDTH 7 0
BBX 7 11 0 -2
BITMAP
15300000
8A7A2000
93037000
745A1000
557D7000
36005A10
17000290
080003B0
093A9710
1B000000
16000000
ENDCHAR
STARTCHAR agrave
ENCODING 224
SWIDTH 505 0
DWIDTH 6 0
BBX 6 8 0 0
BITMAP
007100
003600
02B910
0002A0
0798C4
850199
910006
1ABCB5
ENDCHAR
STARTCHAR aacute
ENCODING 225
SWIDTH 505 0
DWIDTH 6 0
BBX 6 9 0 0
BITMAP
000400
00A200
001000
02B910
0002A0
0798C4
850199
910006
1ABCB5
ENDCHAR
STARTCHAR acircumflex
ENCODING 226
SWIDTH 505 0
DWIDTH 6 0
BBX 6 9 0 0
BITMAP
003700
00AD40
044160
02B910
0002A0
0798C4
850199
910006
1ABCB5
ENDCHAR
STARTCHAR atilde
ENCODING 227
SWIDTH 505 0
DWIDTH 6 0
BBX 6 9 0 0
BITMAP
054040
174950
010000
02B910
0002A0
0798C4
850199
910006
1ABCB5
ENDCHAR
STARTCHAR adieresis
ENCODING 228
SWIDTH 505 0
DWIDTH 6 0
BBX 6 8 0 0
BITMAP
012110
048660
02B910
0002A0
0798C4
850199
910006
1ABCB5
ENDCHAR
STARTCHAR aring
ENCODING 229
SWIDTH 505 0
DWIDTH 6 0
BBX 6 8 0 0
BITMAP
006700
017810
02BB10
0002A0
0798C4
850199
910006
1ABCB5
ENDCHAR
STARTCHAR ae
ENCODING 230
SWIDTH 881 0
DWIDTH 11 0
BBX 11 7 0 -1
BITMAP
02B911996000
0002AA10A000
0798C803A000
85019B971000
91000A100000
1ABCB7B97710
000000024100
ENDCHAR
STARTCHAR ccedilla
ENCODING 231
SWIDTH 449 0
DWIDTH 5 0
BBX 5 10 0 -4
BITMAP
003200
1A5930
820110
A00000
840000
1ABA80
045000
006840
034190
006720
ENDCHAR
STARTCHAR egrave
ENCODING 232
SWIDTH 515 0
DWIDTH 6 0
BBX 6 8 0 0
BITMAP
016000
008400
197A20
730450
A25B10
A55100
470000
05BBA4
ENDCHAR
STARTCHAR eacute
ENCODING 233
SWIDTH 515 0
DWIDTH 6 0
BBX 6 9 0 0
BITMAP
001400
01A100
013100
197A20
730450
A25B10
A55100
470000
05BBA4
ENDCHAR
STARTCHAR ecircumflex
ENCODING 234
SWIDTH 515 0
DWIDTH 6 0
BBX 6 9 0 0
BITMAP
002700
00AD50
046260
197A20
730450
A25B10
A55100
470000
05BBA4
ENDCHAR
STARTCHAR edieresis
ENCODING 235
SWIDTH 515 0
DWIDTH 6 0
BBX 6 8 0 0
BITMAP
021210
077A30
197A20
730450
A25B10
A55100
470000
05BBA4
ENDCHAR
STARTCHAR igrave
ENCODING 236
SWIDTH 174 0
DWIDTH 2 0
BBX 2 8 0 0
BITMAP
10
76
13
45
46
39
1C
0A
ENDCHAR
STARTCHAR iacute
ENCODING 237
SWIDTH 174 0
DWIDTH 2 0
BBX 2 8 0 0
BITMAP
04
A3
31
45
46
39
1C
0A
ENDCHAR
STARTCHAR icircumflex
ENCODING 238
SWIDTH 174 0
DWIDTH 2 0
BBX 4 9 -1 0
BITMAP
0370
0AD5
4416
0110
0450
0460
0390
01C0
00A0
ENDCHAR
STARTCHAR idieresis
ENCODING 239
SWIDTH 174 0
DWIDTH 2 0
BBX 4 7 -1 0
BITMAP
7795
1120
0450
0460
0390
01C0
00A0
ENDCHAR
STARTCHAR eth
ENCODING 240
SWIDTH 407 0
DWIDTH 5 0
BBX 5 8 0 -1
BITMAP
240000
56B570
04BD30
057960
7504A0
900180
3B9C30
002000
ENDCHAR
STARTCHAR ntilde
ENCODING 241
SWIDTH 459 0
DWIDTH 6 0
BBX 6 8 0 0
BITMAP
261130
818910
100000
37AB20
A602A0
9300A1
750074
270073
ENDCHAR
STARTCHAR ograve
ENCODING 242
SWIDTH 487 0
DWIDTH 6 0
BBX 6 7 0 0
BITMAP
005200
001800
07AC80
740094
900037
8201B4
1AAC60
ENDCHAR
STARTCHAR oacute
ENCODING 243
SWIDTH 487 0
DWIDTH 6 0
BBX 6 8 0 0
BITMAP
001400
00A200
001000
07AC80
740094
900037
8201B4
1AAC60
ENDCHAR
STARTCHAR ocircumflex
ENCODING 244
SWIDTH 487 0
DWIDTH 6 0
BBX 6 8 0 0
BITMAP
005400
01BD20
062340
07AC80
740094
900037
8201B4
1AAC60
ENDCHAR
STARTCHAR otilde
ENCODING 245
SWIDTH 487 0
DWIDTH 6 0
BBX 6 7 0 0
BITMAP
055040
183950
08AC80
740094
900037
8201B4
1AAC60
ENDCHAR
STARTCHAR odieresis
ENCODING 246
SWIDTH 487 0
DWIDTH 6 0
BBX 6 7 0 0
BITMAP
011210
066840
07AC80
740094
900037
8201B4
1AAC60
ENDCHAR
STARTCHAR divide
ENCODING 247
SWIDTH 335 0
DWIDTH 4 0
BBX 4 3 0 1
BITMAP
0571
4763
0120
ENDCHAR
STARTCHAR oslash
ENCODING 248
SWIDTH 487 0
DWIDTH 6 0
BBX 6 6 0 0
BITMAP
000140
07AD90
742A94
90B237
8871B4
3DAC60
ENDCHAR
STARTCHAR ugrave
ENCODING 249
SWIDTH 501 0
DWIDTH 6 0
BBX 6 9 0 -1
BITMAP
034000
008100
100000
A00050
9000B1
9100C2
4804E4
08B919
000004
ENDCHAR
STARTCHAR uacute
ENCODING 250
SWIDTH 501 0
DWIDTH 6 0
BBX 6 10 0 -1
BITMAP
000400
00A200
001000
100000
A00050
9000B1
9100C2
4804E4
08B919
000004
ENDCHAR
STARTCHAR ucircumflex
ENCODING 251
SWIDTH 501 0
DWIDTH 6 0
BBX 6 10 0 -1
BITMAP
003600
00AD40
053260
100000
A00050
9000B1
9100C2
4804E4
08B919
000004
ENDCHAR
STARTCHAR udieresis
ENCODING 252
SWIDTH 501 0
DWIDTH 6 0
BBX 6 9 0 -1
BITMAP
021300
093A20
100000
A00050
9000B1
9100C2
4804E4
08B919
000004
ENDCHAR
STARTCHAR yacute
ENCODING 253
SWIDTH 487 0
DWIDTH 6 0
BBX 6 14 0 -6
BITMAP
001400
01A200
101010
800052
900055
730047
1A01C8
03A928
000008
000009
000018
420045
2C3091
029C50
ENDCHAR
STARTCHAR thorn
ENCODING 254
SWIDTH 520 0
DWIDTH 6 0
BBX 6 9 0 -3
BITMAP
630000
825640
8B5388
83000B
9A757B
A35541
A10000
910000
200000
ENDCHAR
STARTCHAR ydieresis
ENCODING 255
SWIDTH 487 0
DWIDTH 6 0
BBX 6 14 0 -6
BITMAP
021300
094A20
100010
800052
900055
730047
1A01C8
03A928
000008
000009
000018
420045
2C3091
029C50
ENDCHAR
STARTCHAR Amacron
ENCODING 256
SWIDTH 562 0
DWIDTH 7 0
BBX 7 11 0 0
BITMAP
02672000
03542000
05898000
08006500
34000900
52000900
62000730
9A778B50
54000460
46000560
17000740
ENDCHAR
STARTCHAR amacron
ENCODING 257
SWIDTH 505 0
DWIDTH 6 0
BBX 6 8 0 0
BITMAP
027720
044420
02B910
0002A0
0798C4
850199
910006
1ABCB5
ENDCHAR
STARTCHAR Abreve
ENCODING 258
SWIDTH 562 0
DWIDTH 7 0
BBX 7 11 0 0
BITMAP
00666000
00030000
05898000
08006500
34000900
52000900
62000730
9A778B50
54000460
46000560
17000740
ENDCHAR
STARTCHAR abreve
ENCODING 259
SWIDTH 505 0
DWIDTH 6 0
BBX 6 8 0 0
BITMAP
027800
002000
02B910
0002A0
0798C4
850199
910006
1ABCB5
ENDCHAR
STARTCHAR Aogonek
ENCODING 260
SWIDTH 562 0
DWIDTH 7 0
BBX 7 12 0 -2
BITMAP
00010000
05898000
08006500
34000900
52000900
62000730
9A778B50
54000460
46000560
17001A40
00008200
00003740
ENDCHAR
STARTCHAR aogonek
ENCODING 261
SWIDTH 505 0
DWIDTH 6 0
BBX 6 8 0 -2
BITMAP
02B910
0002A0
0798C4
850199
910006
1ABDC5
000920
000154
ENDCHAR
STARTCHAR Cacute
ENCODING 262
SWIDTH 515 0
DWIDTH 6 0
BBX 6 10 0 0
BITMAP
000220
003900
004A70
049270
180000
710000
800000
900000
740023
0ACB94
ENDCHAR
STARTCHAR cacute
ENCODING 263
SWIDTH 449 0
DWIDTH 5 0
BBX 5 8 0 0
BITMAP
000500
009300
002000
088A10
730220
A00000
930000
1AAA80
ENDCHAR
STARTCHAR Ccircumflex
ENCODING 264
SWIDTH 515 0
DWIDTH 6 0
BBX 6 11 0 0
BITMAP
002700
00AD50
044160
003970
049270
180000
710000
800000
900000
740023
0ACB94
ENDCHAR
STARTCHAR ccircumflex
ENCODING 265
SWIDTH 449 0
DWIDTH 5 0
BBX 5 9 0 0
BITMAP
007300
02BD10
071430
000000
088A10
730220
A00000
930000
1AAA80
ENDCHAR
STARTCHAR Cdotaccent
ENCODING 266
SWIDTH 515 0
DWIDTH 6 0
BBX 6 10 0 0
BITMAP
001400
000400
003970
049270
180000
710000
800000
900000
740023
0ACB94
ENDCHAR
STARTCHAR cdotaccent
ENCODING 267
SWIDTH 449 0
DWIDTH 5 0
BBX 5 7 0 0
BITMAP
006000
004000
088A10
730220
A00000
930000
1AAA80
ENDCHAR
STARTCHAR Ccaron
ENCODING 268
SWIDTH 515 0
DWIDTH 6 0
BBX 6 10 0 0
BITMAP
003021
003A90
003A70
049270
180000
710000
800000
900000
740023
0ACB94
ENDCHAR
STARTCHAR ccaron
ENCODING 269
SWIDTH 449 0
DWIDTH 5 0
BBX 5 8 0 0
BITMAP
020110
02AA10
001000
088A10
730220
A00000
930000
1AAA80
ENDCHAR
STARTCHAR Dcaron
ENCODING 270
SWIDTH 741 0
DWIDTH 9 0
BBX 9 11 0 -1
BITMAP
0002030000
0004B80000
2687400000
54299A5000
0005507700
0002700930
0001900380
0000B00470
0000802C20
000BAAC300
0000110000
ENDCHAR
STARTCHAR dcaron
ENCODING 271
SWIDTH 582 0
DWIDTH 7 0
BBX 7 9 0 0
BITMAP
00019050
0000E1A0
0000B590
00008710
1CD97900
9603CA00
B0008C00
9305AC00
1CC80500
ENDCHAR
STARTCHAR Dcroat
ENCODING 272
SWIDTH 741 0
DWIDTH 9 0
BBX 9 9 0 -1
BITMAP
2687300000
54299A5000
0005507700
0003800930
004AD50380
0000B00470
0000802C20
000BAAC300
0000110000
ENDCHAR
STARTCHAR dcroat
ENCODING 273
SWIDTH 524 0
DWIDTH 6 0
BBX 7 9 0 0
BITMAP
00006000
0000E200
004BDC30
03517700
4D8BA900
A3009A00
B0009C00
8406AC00
1CC80500
ENDCHAR
STARTCHAR Emacron
ENCODING 274
SWIDTH 524 0
DWIDTH 6 0
BBX 6 9 0 0
BITMAP
016730
39A971
954433
910000
A66891
A42100
900000
900000
5BCDD6
ENDCHAR
STARTCHAR emacron
ENCODING 275
SWIDTH 515 0
DWIDTH 6 0
BBX 6 8 0 0
BITMAP
016730
037420
197A20
730450
A25B10
A55100
470000
05BBA4
ENDCHAR
STARTCHAR Ebreve
ENCODING 276
SWIDTH 524 0
DWIDTH 6 0
BBX 6 9 0 0
BITMAP
008910
366651
954433
910000
A66891
A42100
900000
900000
5BCDD6
ENDCHAR
STARTCHAR ebreve
ENCODING 277
SWIDTH 515 0
DWIDTH 6 0
BBX 6 8 0 0
BITMAP
006650
003300
197A20
730450
A25B10
A55100
470000
05BBA4
ENDCHAR
STARTCHAR Edotaccent
ENCODING 278
SWIDTH 524 0
DWIDTH 6 0
BBX 6 9 0 0
BITMAP
004200
367751
954433
910000
A66891
A42100
900000
900000
5BCDD6
ENDCHAR
STARTCHAR edotaccent
ENCODING 279
SWIDTH 515 0
DWIDTH 6 0
BBX 6 8 0 0
BITMAP
006000
006100
197A20
730450
A25B10
A55100
470000
05BBA4
ENDCHAR
STARTCHAR Eogonek
ENCODING 280
SWIDTH 524 0
DWIDTH 6 0
BBX 6 10 0 -2
BITMAP
365551
954433
910000
A66891
A42100
900000
900000
5BCDD6
000A10
000573
ENDCHAR
STARTCHAR eogonek
ENCODING 281
SWIDTH 515 0
DWIDTH 6 0
BBX 6 9 0 -2
BITMAP
002100
197A20
730450
A25B10
A55100
470000
05BCA4
000A00
000672
ENDCHAR
STARTCHAR Ecaron
ENCODING 282
SWIDTH 524 0
DWIDTH 6 0
BBX 6 10 0 0
BITMAP
011030
007B50
365651
954433
910000
A66891
A42100
900000
900000
5BCDD6
ENDCHAR
STARTCHAR ecaron
ENCODING 283
SWIDTH 515 0
DWIDTH 6 0
BBX 6 9 0 0
BITMAP
011030
018B40
002200
197A20
730450
A25B10
A55100
470000
05BBA4
ENDCHAR
STARTCHAR Gcircumflex
ENCODING 284
SWIDTH 571 0
DWIDTH 7 0
BBX 7 11 0 -1
BITMAP
00009000
0006CA00
00170700
00002300
00497720
07500000
46075610
81033750
73000950
19A97A50
00000370
ENDCHAR
STARTCHAR gcircumflex
ENCODING 285
SWIDTH 366 0
DWIDTH 4 0
BBX 7 15 -2 -6
BITMAP
00018000
0008C700
00351700
00000000
0006B600
00470A00
00900B10
00A23E30
002A9B40
00000740
00000550
20000460
82000640
1B720B10
006BC600
ENDCHAR
STARTCHAR Gbreve
ENCODING 286
SWIDTH 571 0
DWIDTH 7 0
BBX 7 9 0 -1
BITMAP
00666000
00022300
00497720
07500000
46075610
81033750
73000950
19A97A50
00000370
ENDCHAR
STARTCHAR gbreve
ENCODING 287
SWIDTH 366 0
DWIDTH 4 0
BBX 7 13 -2 -6
BITMAP
00078200
00011000
0006B600
00470A00
00900B10
00A23E30
002A9B40
00000740
00000550
20000460
82000640
1B720B10
006BC600
ENDCHAR
STARTCHAR Gdotaccent
ENCODING 288
SWIDTH 571 0
DWIDTH 7 0
BBX 7 9 0 -1
BITMAP
00024000
00016300
00497720
07500000
46075610
81033750
73000950
19A97A50
00000370
ENDCHAR
STARTCHAR gdotaccent
ENCODING 289
SWIDTH 366 0
DWIDTH 4 0
BBX 7 13 -2 -6
BITMAP
00024000
00013000
0006B600
00470A00
00900B10
00A23E30
002A9B40
00000740
00000550
20000460
82000640
1B720B10
006BC600
ENDCHAR
STARTCHAR Gcommaaccent
ENCODING 290
SWIDTH 571 0
DWIDTH 7 0
BBX 7 11 0 -4
BITMAP
00002300
00497720
07500000
46075610
81033750
73000950
19A97A50
00000370
00080000
000A0000
00170000
ENDCHAR
STARTCHAR gcommaaccent
ENCODING 291
SWIDTH 366 0
DWIDTH 4 0
BBX 7 17 -2 -6
BITMAP
00023000
00028000
00019000
00001000
00000000
00000000
0006B600
00470A00
00900B10
00A23E30
002A9B40
00000740
00000550
20000460
82000640
1B720B10
006BC600
ENDCHAR
STARTCHAR Hcircumflex
ENCODING 292
SWIDTH 524 0
DWIDTH 6 0
BBX 6 12 0 0
BITMAP
002700
00AC50
044160
000000
500018
800018
720018
6405B8
5BA619
7A000A
19000A
060009
ENDCHAR
STARTCHAR hcircumflex
ENCODING 293
SWIDTH 427 0
DWIDTH 5 0
BBX 6 10 -1 0
BITMAP
000630
122BD1
197143
0B0000
094610
07B7B1
054036
046019
03801A
018028
ENDCHAR
STARTCHAR hbar
ENCODING 295
SWIDTH 427 0
DWIDTH 5 0
BBX 6 9 -1 0
BITMAP
120000
190000
7EA100
395610
07B7B1
054036
046019
03801A
018028
ENDCHAR
STARTCHAR Itilde
ENCODING 296
SWIDTH 167 0
DWIDTH 2 0
BBX 5 9 -1 0
BITMAP
450310
839600
140000
090000
063000
036000
029000
00A000
009000
ENDCHAR
STARTCHAR itilde
ENCODING 297
SWIDTH 174 0
DWIDTH 2 0
BBX 5 8 -1 0
BITMAP
486540
503500
011000
045000
046000
039000
01C000
00A000
ENDCHAR
STARTCHAR imacron
ENCODING 299
SWIDTH 174 0
DWIDTH 2 0
BBX 4 8 -1 0
BITMAP
0331
4874
0110
0450
0460
0390
01C0
00A0
ENDCHAR
STARTCHAR Ibreve
ENCODING 300
SWIDTH 167 0
DWIDTH 2 0
BBX 3 9 0 0
BITMAP
7820
1100
4000
9000
6300
3600
2900
0A00
0900
ENDCHAR
STARTCHAR ibreve
ENCODING 301
SWIDTH 174 0
DWIDTH 2 0
BBX 3 8 -1 0
BITMAP
0020
1880
0110
0450
0460
0390
01C0
00A0
ENDCHAR
STARTCHAR Iogonek
ENCODING 302
SWIDTH 167 0
DWIDTH 2 0
BBX 3 9 0 -2
BITMAP
4000
9000
6300
3600
2900
0A00
3B00
A000
6720
ENDCHAR
STARTCHAR iogonek
ENCODING 303
SWIDTH 174 0
DWIDTH 2 0
BBX 4 10 -1 -2
BITMAP
0100
0600
0110
0450
0460
0390
01C0
04C0
1900
0861
ENDCHAR
STARTCHAR Idotaccent
ENCODING 304
SWIDTH 167 0
DWIDTH 2 0
BBX 3 9 -1 0
BITMAP
1500
0400
0400
0900
0630
0360
0290
00A0
0090
ENDCHAR
STARTCHAR dotlessi
ENCODING 305
SWIDTH 174 0
DWIDTH 2 0
BBX 2 6 0 0
BITMAP
11
45
46
39
1C
0A
ENDCHAR
STARTCHAR Jcircumflex
ENCODING 308
SWIDTH 439 0
DWIDTH 5 0
BBX 6 12 0 0
BITMAP
000450
001BD3
005325
000110
000270
0000A0
0000A0
1000A0
900091
460091
0550A0
005A80
ENDCHAR
STARTCHAR jcircumflex
ENCODING 309
SWIDTH 200 0
DWIDTH 2 0
BBX 5 15 -2 -6
BITMAP
001800
009C70
035170
000000
000500
000B00
000B10
000930
000660
000480
320190
2900A0
0A30A0
01AA80
000410
ENDCHAR
STARTCHAR Kcommaaccent
ENCODING 310
SWIDTH 468 0
DWIDTH 6 0
BBX 6 11 0 -4
BITMAP
802A00
91B100
8A2000
780000
7B6000
646910
3502A2
000000
007200
007300
007100
ENDCHAR
STARTCHAR kcommaaccent
ENCODING 311
SWIDTH 403 0
DWIDTH 5 0
BBX 5 12 0 -4
BITMAP
100000
800000
900400
917400
6A4000
5C0000
5E6000
546C70
000000
008000
00A000
017000
ENDCHAR
STARTCHAR Lacute
ENCODING 313
SWIDTH 346 0
DWIDTH 4 0
BBX 4 9 0 0
BITMAP
0014
01A1
1210
7300
9200
A000
A000
A000
4CC9
ENDCHAR
STARTCHAR lacute
ENCODING 314
SWIDTH 120 0
DWIDTH 1 0
BBX 3 10 -1 0
BITMAP
0140
1A10
1100
0900
0A10
0A10
0A20
0A20
0A20
0800
ENDCHAR
STARTCHAR Lcommaaccent
ENCODING 315
SWIDTH 346 0
DWIDTH 4 0
BBX 4 11 0 -4
BITMAP
1100
7300
9200
A000
A000
A000
4CC9
0000
0450
0370
0530
ENDCHAR
STARTCHAR lcommaaccent
ENCODING 316
SWIDTH 120 0
DWIDTH 1 0
BBX 2 11 0 -4
BITMAP
90
A1
A1
A2
A2
A2
80
00
81
82
80
ENDCHAR
STARTCHAR Lcaron
ENCODING 317
SWIDTH 346 0
DWIDTH 4 0
BBX 4 9 0 0
BITMAP
0050
00A0
1190
7310
9200
A000
A000
A000
4CC9
ENDCHAR
STARTCHAR lcaron
ENCODING 318
SWIDTH 222 0
DWIDTH 3 0
BBX 3 9 0 0
BITMAP
0320
0560
9370
A110
A100
A200
A200
A200
8000
ENDCHAR
STARTCHAR Ldot
ENCODING 319
SWIDTH 346 0
DWIDTH 4 0
BBX 4 7 0 0
BITMAP
1100
7300
9200
A340
A790
A000
4CC9
ENDCHAR
STARTCHAR ldot
ENCODING 320
SWIDTH 333 0
DWIDTH 4 0
BBX 4 7 0 0
BITMAP
9000
A100
A100
A252
A2B4
A200
8000
ENDCHAR
STARTCHAR Lslash
ENCODING 321
SWIDTH 346 0
DWIDTH 4 0
BBX 5 7 0 0
BITMAP
030000
0A0000
1A0000
2B2000
9B1000
480000
08CC40
ENDCHAR
STARTCHAR lslash
ENCODING 322
SWIDTH 120 0
DWIDTH 1 0
BBX 3 7 -1 0
BITMAP
0810
0820
0990
2D60
5940
0830
0510
ENDCHAR
STARTCHAR Nacute
ENCODING 323
SWIDTH 609 0
DWIDTH 7 0
BBX 7 9 0 0
BITMAP
00032000
00490000
30200000
74000A10
78000770
7E0001B0
947000A0
A18601A0
9107BA20
ENDCHAR
STARTCHAR nacute
ENCODING 324
SWIDTH 459 0
DWIDTH 6 0
BBX 6 9 0 0
BITMAP
003200
048000
020000
000000
37AB20
A602A0
9300A1
750074
270073
ENDCHAR
STARTCHAR Ncommaaccent
ENCODING 325
SWIDTH 609 0
DWIDTH 7 0
BBX 7 11 0 -4
BITMAP
30000000
74000A10
78000770
7E0001B0
947000A0
A18601A0
9107BA20
00000000
00080000
00091000
00080000
ENDCHAR
STARTCHAR ncommaaccent
ENCODING 326
SWIDTH 459 0
DWIDTH 6 0
BBX 6 9 0 -4
BITMAP
37AB20
A602A0
9300A1
750074
270073
000000
007100
008300
008000
ENDCHAR
STARTCHAR Ncaron
ENCODING 327
SWIDTH 609 0
DWIDTH 7 0
BBX 7 10 0 0
BITMAP
00302100
003AA100
00010000
30000000
74000A10
78000770
7E0001B0
947000A0
A18601A0
9107BA20
ENDCHAR
STARTCHAR ncaron
ENCODING 328
SWIDTH 459 0
DWIDTH 6 0
BBX 6 8 0 0
BITMAP
020110
02AA10
001000
37AB20
A602A0
9300A1
750074
270073
ENDCHAR
STARTCHAR napostrophe
ENCODING 329
SWIDTH 459 0
DWIDTH 6 0
BBX 6 8 0 0
BITMAP
080000
0A0000
080000
37AB20
A602A0
9300A1
750074
270073
ENDCHAR
STARTCHAR Omacron
ENCODING 332
SWIDTH 609 0
DWIDTH 7 0
BBX 7 9 0 0
BITMAP
00477100
00544100
00000000
07A82000
74029800
80000660
910000B0
4A1002B0
05B99910
ENDCHAR
STARTCHAR omacron
ENCODING 333
SWIDTH 487 0
DWIDTH 6 0
BBX 6 7 0 0
BITMAP
026720
044420
07AC80
740094
900037
8201B4
1AAC60
ENDCHAR
STARTCHAR Obreve
ENCODING 334
SWIDTH 609 0
DWIDTH 7 0
BBX 7 8 0 0
BITMAP
00467000
00020000
07A82000
74029800
80000660
910000B0
4A1002B0
05B99910
ENDCHAR
STARTCHAR obreve
ENCODING 335
SWIDTH 487 0
DWIDTH 6 0
BBX 6 7 0 0
BITMAP
056600
002000
07AC80
740094
900037
8201B4
1AAC60
ENDCHAR
STARTCHAR Ohungarumlaut
ENCODING 336
SWIDTH 609 0
DWIDTH 7 0
BBX 7 9 0 0
BITMAP
00455000
00763000
00000000
07A82000
74029800
80000660
910000B0
4A1002B0
05B99910
ENDCHAR
STARTCHAR ohungarumlaut
ENCODING 337
SWIDTH 487 0
DWIDTH 6 0
BBX 6 7 0 0
BITMAP
026500
064700
07AC80
740094
900037
8201B4
1AAC60
ENDCHAR
STARTCHAR OE
ENCODING 338
SWIDTH 848 0
DWIDTH 10 0
BBX 10 6 0 0
BITMAP
08A8498774
7305E40000
8000B85772
9100841000
3A10A20000
04BAA99AA7
ENDCHAR
STARTCHAR oe
ENCODING 339
SWIDTH 875 0
DWIDTH 11 0
BBX 11 7 0 -1
BITMAP
000001894000
07AC7A10A000
740097029000
90004A991000
8201BA000000
1AAC65A65610
000000156200
ENDCHAR
STARTCHAR Racute
ENCODING 340
SWIDTH 579 0
DWIDTH 7 0
BBX 8 11 -1 -1
BITMAP
00001400
0000A200
02688400
1B4348A0
02600084
00856AA1
006C5100
003D4000
00088500
00050781
00000034
ENDCHAR
STARTCHAR racute
ENCODING 341
SWIDTH 346 0
DWIDTH 4 0
BBX 4 8 0 0
BITMAP
0041
0570
0463
B758
A000
8200
4700
0800
ENDCHAR
STARTCHAR Rcommaaccent
ENCODING 342
SWIDTH 579 0
DWIDTH 7 0
BBX 8 12 -1 -4
BITMAP
02677400
1B4348A0
02600084
00856AA1
006C5100
003D4000
00088500
00050781
00000034
00008000
0000A000
00008000
ENDCHAR
STARTCHAR rcommaaccent
ENCODING 343
SWIDTH 346 0
DWIDTH 4 0
BBX 4 10 0 -4
BITMAP
0263
B758
A000
8200
4700
0800
0000
0450
0370
0530
ENDCHAR
STARTCHAR Rcaron
ENCODING 344
SWIDTH 579 0
DWIDTH 7 0
BBX 8 12 -1 -1
BITMAP
00020300
0005B800
00001000
02677400
1B4348A0
02600084
00856AA1
006C5100
003D4000
00088500
00050781
00000034
ENDCHAR
STARTCHAR rcaron
ENCODING 345
SWIDTH 346 0
DWIDTH 4 0
BBX 4 8 0 0
BITMAP
1103
18B4
0263
B758
A000
8200
4700
0800
ENDCHAR
STARTCHAR Sacute
ENCODING 346
SWIDTH 627 0
DWIDTH 8 0
BBX 8 11 0 -1
BITMAP
00014000
001A2000
00132000
02966B30
05400010
01960000
0004A600
70000690
65000093
05999A80
00001000
ENDCHAR
STARTCHAR sacute
ENCODING 347
SWIDTH 514 0
DWIDTH 6 0
BBX 6 9 0 0
BITMAP
000310
005800
002000
046300
673910
482300
0368A4
51001C
2AAAB5
ENDCHAR
STARTCHAR Scircumflex
ENCODING 348
SWIDTH 627 0
DWIDTH 8 0
BBX 8 12 0 -1
BITMAP
00064000
002BD200
00614400
00022000
02966B30
05400010
01960000
0004A600
70000690
65000093
05999A80
00001000
ENDCHAR
STARTCHAR scircumflex
ENCODING 349
SWIDTH 514 0
DWIDTH 6 0
BBX 6 9 0 0
BITMAP
002700
00AD50
044160
046300
673910
482300
0368A4
51001C
2AAAB5
ENDCHAR
STARTCHAR Scedilla
ENCODING 350
SWIDTH 627 0
DWIDTH 8 0
BBX 8 12 0 -4
BITMAP
00022000
02966B30
05400010
01960000
0004A600
70000690
65000093
05A99A80
00801000
00278100
00515400
00297000
ENDCHAR
STARTCHAR scedilla
ENCODING 351
SWIDTH 514 0
DWIDTH 6 0
BBX 6 10 0 -4
BITMAP
046300
673910
482300
0368A4
51001C
2AAAB5
045000
007830
023090
007820
ENDCHAR
STARTCHAR Scaron
ENCODING 352
SWIDTH 627 0
DWIDTH 8 0
BBX 8 11 0 -1
BITMAP
00201100
002AA100
00032000
02966B30
05400010
01960000
0004A600
70000690
65000093
05999A80
00001000
ENDCHAR
STARTCHAR scaron
ENCODING 353
SWIDTH 514 0
DWIDTH 6 0
BBX 6 8 0 0
BITMAP
011030
018B40
047400
673910
482300
0368A4
51001C
2AAAB5
ENDCHAR
STARTCHAR Tcommaaccent
ENCODING 354
SWIDTH 581 0
DWIDTH 7 0
BBX 8 12 0 -4
BITMAP
22210000
579BCAB8
00046001
00037000
00019000
0000B000
0000B000
00009400
00000000
00007100
00008200
00008000
ENDCHAR
STARTCHAR tcommaaccent
ENCODING 355
SWIDTH 328 0
DWIDTH 4 0
BBX 4 11 0 -4
BITMAP
0730
0750
7DC7
0750
0760
0660
0250
0000
0530
0560
0620
ENDCHAR
STARTCHAR Tcaron
ENCODING 356
SWIDTH 581 0
DWIDTH 7 0
BBX 8 10 0 0
BITMAP
00202000
004B8000
22220000
579BCAB8
00046001
00037000
00019000
0000B000
0000B000
00009400
ENDCHAR
STARTCHAR tcaron
ENCODING 357
SWIDTH 431 0
DWIDTH 5 0
BBX 5 9 0 0
BITMAP
000050
0000A0
073090
075010
7DC700
075000
076000
066000
025000
ENDCHAR
STARTCHAR Utilde
ENCODING 360
SWIDTH 571 0
DWIDTH 7 0
BBX 7 9 0 0
BITMAP
01711400
07279100
23000200
81002800
80001A00
80000A00
63000B10
1A007D70
06DB4160
ENDCHAR
STARTCHAR utilde
ENCODING 361
SWIDTH 501 0
DWIDTH 6 0
BBX 6 9 0 -1
BITMAP
036022
082980
110000
A00050
9000B1
9100C2
4804E4
08B919
000004
ENDCHAR
STARTCHAR Umacron
ENCODING 362
SWIDTH 571 0
DWIDTH 7 0
BBX 7 9 0 0
BITMAP
00576000
00644000
23000200
81002800
80001A00
80000A00
63000B10
1A007D70
06DB4160
ENDCHAR
STARTCHAR umacron
ENCODING 363
SWIDTH 501 0
DWIDTH 6 0
BBX 6 9 0 -1
BITMAP
037710
054410
100000
A00050
9000B1
9100C2
4804E4
08B919
000004
ENDCHAR
STARTCHAR Ubreve
ENCODING 364
SWIDTH 571 0
DWIDTH 7 0
BBX 7 8 0 0
BITMAP
00666000
23020200
81002800
80001A00
80000A00
63000B10
1A007D70
06DB4160
ENDCHAR
STARTCHAR ubreve
ENCODING 365
SWIDTH 501 0
DWIDTH 6 0
BBX 6 8 0 -1
BITMAP
046700
102000
A00050
9000B1
9100C2
4804E4
08B919
000004
ENDCHAR
STARTCHAR Uring
ENCODING 366
SWIDTH 571 0
DWIDTH 7 0
BBX 7 9 0 0
BITMAP
00472000
00654000
23020200
81002800
80001A00
80000A00
63000B10
1A007D70
06DB4160
ENDCHAR
STARTCHAR uring
ENCODING 367
SWIDTH 501 0
DWIDTH 6 0
BBX 6 8 0 -1
BITMAP
016700
126800
A01150
9000B1
9100C2
4804E4
08B919
000004
ENDCHAR
STARTCHAR Uhungarumlaut
ENCODING 368
SWIDTH 571 0
DWIDTH 7 0
BBX 7 9 0 0
BITMAP
00634000
01682000
23000200
81002800
80001A00
80000A00
63000B10
1A007D70
06DB4160
ENDCHAR
STARTCHAR uhungarumlaut
ENCODING 369
SWIDTH 501 0
DWIDTH 6 0
BBX 6 9 0 -1
BITMAP
006340
016820
100000
A00050
9000B1
9100C2
4804E4
08B919
000004
ENDCHAR
STARTCHAR Uogonek
ENCODING 370
SWIDTH 571 0
DWIDTH 7 0
BBX 8 8 0 -2
BITMAP
45000700
81000B00
71000A00
63000910
28000C60
0975A7B0
00661A20
00001971
ENDCHAR
STARTCHAR uogonek
ENCODING 371
SWIDTH 501 0
DWIDTH 6 0
BBX 7 8 0 -2
BITMAP
50000000
A000A000
9000B100
7300D200
1B398600
02736A00
00019000
00005610
ENDCHAR
STARTCHAR Wcircumflex
ENCODING 372
SWIDTH 703 0
DWIDTH 8 0
BBX 9 11 0 0
BITMAP
0001800000
0008C70000
0035170000
0000000000
0000000000
7000004400
A000002B00
B005000B10
A109300830
653CA00A10
0AA13CB400
ENDCHAR
STARTCHAR wcircumflex
ENCODING 373
SWIDTH 656 0
DWIDTH 8 0
BBX 8 9 0 0
BITMAP
00045000
001BD300
00532500
00000000
80000020
A0034072
A0057037
730AB067
09C75BB1
ENDCHAR
STARTCHAR Ycircumflex
ENCODING 374
SWIDTH 403 0
DWIDTH 5 0
BBX 5 12 0 -1
BITMAP
009100
05CA00
170700
500020
840180
1B4750
018E10
002900
006400
009100
009000
001000
ENDCHAR
STARTCHAR ycircumflex
ENCODING 375
SWIDTH 487 0
DWIDTH 6 0
BBX 6 15 0 -6
BITMAP
004500
01BD30
053250
100010
800052
900055
730047
1A01C8
03A928
000008
000009
000018
420045
2C3091
029C50
ENDCHAR
STARTCHAR Ydieresis
ENCODING 376
SWIDTH 403 0
DWIDTH 5 0
BBX 5 11 0 -1
BITMAP
030300
0B2B00
500020
840180
1B4750
018E10
002900
006400
009100
009000
001000
ENDCHAR
STARTCHAR Zacute
ENCODING 377
SWIDTH 571 0
DWIDTH 7 0
BBX 7 11 0 0
BITMAP
00023000
00390000
00100000
26620000
64386000
00009000
0001A000
05AEC910
00190000
00A10220
00CBCA40
ENDCHAR
STARTCHAR zacute
ENCODING 378
SWIDTH 459 0
DWIDTH 6 0
BBX 6 9 0 0
BITMAP
002300
02A100
033000
887A00
000A00
135D30
38D310
0A3030
0BDC91
ENDCHAR
STARTCHAR Zdotaccent
ENCODING 379
SWIDTH 571 0
DWIDTH 7 0
BBX 7 10 0 0
BITMAP
00510000
00310000
26620000
64386000
00009000
0001A000
05AEC910
00190000
00A10220
00CBCA40
ENDCHAR
STARTCHAR zdotaccent
ENCODING 380
SWIDTH 459 0
DWIDTH 6 0
BBX 6 8 0 0
BITMAP
004100
016200
887A00
000A00
135D30
38D310
0A3030
0BDC91
ENDCHAR
STARTCHAR Zcaron
ENCODING 381
SWIDTH 571 0
DWIDTH 7 0
BBX 7 10 0 0
BITMAP
02102000
018B3000
26630000
64386000
00009000
0001A000
05AEC910
00190000
00A10220
00CBCA40
ENDCHAR
STARTCHAR zcaron
ENCODING 382
SWIDTH 459 0
DWIDTH 6 0
BBX 6 9 0 0
BITMAP
120300
06B600
014000
887A00
000A00
135D30
38D310
0A3030
0BDC91
ENDCHAR
STARTCHAR florin
ENCODING 402
SWIDTH 376 0
DWIDTH 5 0
BBX 7 13 -1 -4
BITMAP
00036100
004A4B20
00A10120
00B00000
00C00000
09DA9100
00910000
00910000
00A00000
00B00000
A1A00000
2AC00000
00100000
ENDCHAR
STARTCHAR AEacute
ENCODING 508
SWIDTH 960 0
DWIDTH 12 0
BBX 12 11 0 0
BITMAP
000000310000
000105800000
058982000000
080065666640
34000AB44340
520009900000
620007B68960
9A778B921000
540004600000
460005600010
170007BBCDB1
ENDCHAR
STARTCHAR aeacute
ENCODING 509
SWIDTH 881 0
DWIDTH 11 0
BBX 11 10 0 -1
BITMAP
000001300000
00002A100000
000011000000
02B911996000
0002AA10A000
0798C803A000
85019B971000
91000A100000
1ABCB7B97710
000000024100
ENDCHAR
STARTCHAR Oslashacute
ENCODING 510
SWIDTH 609 0
DWIDTH 7 0
BBX 7 10 0 -1
BITMAP
00012000
002A1000
00311000
07A89000
7402D800
80054660
910A00B0
4A3802B0
05EB9910
00900000
ENDCHAR
STARTCHAR oslashacute
ENCODING 511
SWIDTH 487 0
DWIDTH 6 0
BBX 6 8 0 0
BITMAP
000100
005800
005000
07ACC1
7405D4
902B47
83B3B4
1CCC60
ENDCHAR
STARTCHAR Scommaaccent
ENCODING 536
SWIDTH 627 0
DWIDTH 8 0
BBX 8 12 0 -4
BITMAP
00022000
02966B30
05400010
01960000
0004A600
70000690
65000093
05999A80
00001000
00080000
000A0000
00080000
ENDCHAR
STARTCHAR scommaaccent
ENCODING 537
SWIDTH 514 0
DWIDTH 6 0
BBX 6 10 0 -4
BITMAP
046300
673910
482300
0368A4
51001C
2AAAB5
000000
004500
003700
005300
ENDCHAR
STARTCHAR circumflex
ENCODING 710
SWIDTH 375 0
DWIDTH 5 0
BBX 4 3 0 6
BITMAP
0180
08C7
3517
ENDCHAR
STARTCHAR caron
ENCODING 711
SWIDTH 375 0
DWIDTH 5 0
BBX 4 3 0 5
BITMAP
1203
06B5
0010
ENDCHAR
STARTCHAR breve
ENCODING 728
SWIDTH 224 0
DWIDTH 3 0
BBX 3 2 0 4
BITMAP
6650
0200
ENDCHAR
STARTCHAR dotaccent
ENCODING 729
SWIDTH 152 0
DWIDTH 2 0
BBX 2 2 0 5
BITMAP
32
22
ENDCHAR
STARTCHAR ring
ENCODING 730
SWIDTH 333 0
DWIDTH 4 0
BBX 3 3 1 4
BITMAP
5810
7630
1100
ENDCHAR
STARTCHAR ogonek
ENCODING 731
SWIDTH 254 0
DWIDTH 3 0
BBX 3 3 0 -2
BITMAP
1600
8300
4740
ENDCHAR
STARTCHAR tilde
ENCODING 732
SWIDTH 402 0
DWIDTH 5 0
BBX 5 3 0 4
BITMAP
261230
828800
100000
ENDCHAR
STARTCHAR hungarumlaut
ENCODING 733
SWIDTH 264 0
DWIDTH 3 0
BBX 3 2 0 5
BITMAP
2660
6460
ENDCHAR
STARTCHAR Wgrave
ENCODING 7808
SWIDTH 703 0
DWIDTH 8 0
BBX 9 9 0 0
BITMAP
0003400000
0000810000
0000000000
7000004400
A000002B00
B005000B10
A109300830
653CA00A10
0AA13CB400
ENDCHAR
STARTCHAR wgrave
ENCODING 7809
SWIDTH 656 0
DWIDTH 8 0
BBX 8 7 0 0
BITMAP
00052000
00018000
80000020
A0034072
A0057037
730AB067
09C75BB1
ENDCHAR
STARTCHAR Wacute
ENCODING 7810
SWIDTH 703 0
DWIDTH 8 0
BBX 9 9 0 0
BITMAP
0000500000
0009400000
0002000000
7000004400
A000002B00
B005000B10
A109300830
653CA00A10
0AA13CB400
ENDCHAR
STARTCHAR wacute
ENCODING 7811
SWIDTH 656 0
DWIDTH 8 0
BBX 8 8 0 0
BITMAP
00005000
00094000
00020000
80000020
A0034072
A0057037
730AB067
09C75BB1
ENDCHAR
STARTCHAR Wdieresis
ENCODING 7812
SWIDTH 703 0
DWIDTH 8 0
BBX 9 9 0 0
BITMAP
0002120000
0039480000
0000000000
7000004400
A000002B00
B005000B10
A109300830
653CA00A10
0AA13CB400
ENDCHAR
STARTCHAR wdieresis
ENCODING 7813
SWIDTH 656 0
DWIDTH 8 0
BBX 8 7 0 0
BITMAP
00112100
00668400
80000020
A0034072
A0057037
730AB067
09C75BB1
ENDCHAR
STARTCHAR Ygrave
ENCODING 7922
SWIDTH 403 0
DWIDTH 5 0
BBX 5 11 0 -1
BITMAP
034000
007100
500020
840180
1B4750
018E10
002900
006400
009100
009000
001000
ENDCHAR
STARTCHAR ygrave
ENCODING 7923
SWIDTH 487 0
DWIDTH 6 0
BBX 6 13 0 -6
BITMAP
005200
101810
800052
900055
730047
1A01C8
03A928
000008
000009
000018
420045
2C3091
029C50
ENDCHAR
STARTCHAR endash
ENCODING 8211
SWIDTH 287 0
DWIDTH 3 0
BBX 4 2 0 2
BITMAP
7BB2
1000
ENDCHAR
STARTCHAR emdash
ENCODING 8212
SWIDTH 512 0
DWIDTH 6 0
BBX 6 2 0 2
BITMAP
4ABAA7
110000
ENDCHAR
STARTCHAR quoteleft
ENCODING 8216
SWIDTH 102 0
DWIDTH 1 0
BBX 1 4 0 5
BITMAP
50
A0
90
10
ENDCHAR
STARTCHAR quoteright
ENCODING 8217
SWIDTH 102 0
DWIDTH 1 0
BBX 1 4 0 5
BITMAP
50
A0
90
10
ENDCHAR
STARTCHAR quotesinglbase
ENCODING 8218
SWIDTH 102 0
DWIDTH 1 0
BBX 2 4 0 -1
BITMAP
30
A0
91
20
ENDCHAR
STARTCHAR quotedblleft
ENCODING 8220
SWIDTH 234 0
DWIDTH 3 0
BBX 3 5 0 5
BITMAP
1210
9450
A570
5670
0010
ENDCHAR
STARTCHAR quotedblright
ENCODING 8221
SWIDTH 234 0
DWIDTH 3 0
BBX 3 5 0 5
BITMAP
1210
9450
A570
5670
0010
ENDCHAR
STARTCHAR quotedblbase
ENCODING 8222
SWIDTH 341 0
DWIDTH 4 0
BBX 4 5 0 -2
BITMAP
0010
1581
0A83
0A73
0232
ENDCHAR
STARTCHAR dagger
ENCODING 8224
SWIDTH 375 0
DWIDTH 5 0
BBX 5 8 0 0
BITMAP
040000
054000
039200
6AC810
009000
00A000
00A000
009000
ENDCHAR
STARTCHAR daggerdbl
ENCODING 8225
SWIDTH 375 0
DWIDTH 5 0
BBX 6 9 -1 0
BITMAP
007300
005500
001700
5ABD99
011922
499C96
000800
000900
000900
ENDCHAR
STARTCHAR bullet
ENCODING 8226
SWIDTH 341 0
DWIDTH 4 0
BBX 3 3 1 2
BITMAP
0200
8F30
7E20
ENDCHAR
STARTCHAR ellipsis
ENCODING 8230
SWIDTH 612 0
DWIDTH 7 0
BBX 7 3 0 0
BITMAP
02020020
5E1D76D0
4C0C56B0
ENDCHAR
STARTCHAR guilsinglleft
ENCODING 8249
SWIDTH 487 0
DWIDTH 6 0
BBX 6 5 0 0
BITMAP
000183
004A20
086000
AA4100
2579B0
ENDCHAR
STARTCHAR guilsinglright
ENCODING 8250
SWIDTH 403 0
DWIDTH 5 0
BBX 5 6 0 0
BITMAP
520000
2A9410
0028B0
002B30
06A100
760000
ENDCHAR
STARTCHAR fraction
ENCODING 8260
SWIDTH 309 0
DWIDTH 4 0
BBX 4 9 0 0
BITMAP
0016
0055
0091
01A0
0560
0A10
1A00
8400
9000
ENDCHAR
STARTCHAR Euro
ENCODING 8364
SWIDTH 741 0
DWIDTH 9 0
BBX 9 9 0 0
BITMAP
0000003200
0000296500
0015D61000
9AAC664000
0072121000
68D9862000
1090000000
0081000320
002AABB820
ENDCHAR
STARTCHAR trademark
ENCODING 8482
SWIDTH 1116 0
DWIDTH 13 0
BBX 13 8 0 0
BITMAP
55443203000020
2569A8AD600590
00046004E32C80
0002700479A780
00019005600190
0000B0056000B0
0000B0056000C0
000095033000B0
ENDCHAR
STARTCHAR minus
ENCODING 8722
SWIDTH 287 0
DWIDTH 3 0
BBX 4 2 0 2
BITMAP
7BB2
1000
ENDCHAR
STARTCHAR commaaccent
ENCODING 63171
SWIDTH 375 0
DWIDTH 5 0
BBX 2 3 1 -4
BITMAP
62
64
71
ENDCHAR
STARTCHAR fi
ENCODING 64257
SWIDTH 551 0
DWIDTH 7 0
BBX 6 10 0 -1
BITMAP
003610
0494B2
080622
090000
0B0090
9DCBA0
0570C0
00C1C0
0058A2
000010
ENDCHAR
STARTCHAR fl
ENCODING 64258
SWIDTH 723 0
DWIDTH 9 0
BBX 6 9 0 0
BITMAP
003610
0494B2
080262
090380
0B0380
9DCC90
057390
00C490
005970
ENDCHAR
STARTCHAR .notdef
ENCODING -1
SWIDTH 375 0
DWIDTH 5 0
BBX 1 1 0 0
BITMAP
00
ENDCHAR
STARTCHAR .null
ENCODING -1
SWIDTH 0 0
DWIDTH 0 0
BBX 1 1 0 0
BITMAP
00
ENDCHAR
STARTCHAR nonmarkingreturn
ENCODING -1
SWIDTH 375 0
DWIDTH 5 0
BBX 1 1 0 0
BITMAP
00
ENDCHAR
ENDFONT
